<?xml version="1.0" encoding="UTF-8"?>
<svg version="1.1" xmlns="http://www.w3.org/2000/svg" width="800" height="800">
<path d="M0 0 C264 0 528 0 800 0 C800 264 800 528 800 800 C536 800 272 800 0 800 C0 536 0 272 0 0 Z " fill="#FEFEFE" transform="translate(0,0)"/>
<path d="M0 0 C58.125 0 58.125 0 67.5 4 C68.2940625 4.33 69.088125 4.66 69.90625 5 C72 6 72 6 75 8 C75 8.66 75 9.32 75 10 C75.89332031 10.36738281 75.89332031 10.36738281 76.8046875 10.7421875 C81.83311778 13.62324542 84.44657903 19.49067009 86.375 24.75 C88.3156266 34.79324282 87.88777454 45.5098398 82.55859375 54.40625 C78.23356578 60.42717061 72.62229974 65.90627274 65.2265625 67.65625 C64.49179688 67.7696875 63.75703125 67.883125 63 68 C68.59203918 78.54812096 74.742026 88.74342388 81.0234375 98.890625 C81.5285083 99.70909912 82.0335791 100.52757324 82.55395508 101.37084961 C83.5471277 102.97834587 84.54426371 104.58340124 85.5456543 106.18579102 C86.22108276 107.27911743 86.22108276 107.27911743 86.91015625 108.39453125 C87.31371338 109.04268799 87.71727051 109.69084473 88.13305664 110.35864258 C89 112 89 112 89 114 C80.75 114 72.5 114 64 114 C62.35 110.7 60.7 107.4 59 104 C57.68950682 101.61232113 56.3583934 99.23575627 55 96.875 C54.65606201 96.2766333 54.31212402 95.6782666 53.95776367 95.06176758 C51.77359527 91.28062797 49.50980784 87.56260583 47.16015625 83.8828125 C45.33069964 80.91379538 43.67711413 77.85049854 42.015625 74.78515625 C41.12549324 73.03718069 41.12549324 73.03718069 40 72 C34.06 71.67 28.12 71.34 22 71 C22 85.19 22 99.38 22 114 C14.74 114 7.48 114 0 114 C0 76.38 0 38.76 0 0 Z " fill="#C0C0C0" transform="translate(9,343)"/>
<path d="M0 0 C6.93 0 13.86 0 21 0 C21 38.61 21 77.22 21 117 C14.73 117 8.46 117 2 117 C1.505 113.535 1.505 113.535 1 110 C-1.57115448 110 -2.45239736 110.8673994 -4.5625 112.3125 C-13.94379567 118.21986328 -23.81304566 119.73207779 -34.76953125 117.4140625 C-44.96199462 113.91491759 -51.95209625 106.21358362 -56.84375 96.87109375 C-61.84699138 84.44750451 -61.95854079 68.4585559 -57 56 C-52.55566926 46.61752399 -45.79670522 39.83196051 -36.140625 35.80859375 C-26.25580452 33.26362131 -15.01015526 34.11006649 -6 39 C-3.525 40.98 -3.525 40.98 -1 43 C-0.67 28.81 -0.34 14.62 0 0 Z " fill="#030303" transform="translate(563,340)"/>
<path d="M0 0 C6.6 0 13.2 0 20 0 C20 38.61 20 77.22 20 117 C13.73 117 7.46 117 1 117 C0.505 112.545 0.505 112.545 0 108 C-0.61875 108.495 -1.2375 108.99 -1.875 109.5 C-4 111 -4 111 -6 111 C-6 111.66 -6 112.32 -6 113 C-16.73126024 117.91776247 -26.16243797 120.06378467 -37.6875 116.5625 C-47.00113323 112.6795567 -53.49653868 105.7051723 -57.8828125 96.734375 C-62.81706333 84.65753731 -62.9380032 68.57009079 -57.96484375 56.484375 C-53.26371502 46.38677374 -47.17890528 40.01514022 -36.875 35.6875 C-25.19788985 33.61575465 -14.53945687 34.30176719 -4.56640625 40.87890625 C-3 42 -3 42 -2 43 C-1.96241577 41.09939819 -1.96241577 41.09939819 -1.92407227 39.16040039 C-1.83018004 34.47702221 -1.72991565 29.7937987 -1.62768555 25.1105957 C-1.58426759 23.08035896 -1.54259774 21.05008408 -1.50268555 19.01977539 C-1.44514854 16.10811849 -1.38140722 13.19665486 -1.31640625 10.28515625 C-1.29133751 8.91485008 -1.29133751 8.91485008 -1.26576233 7.51686096 C-1.11387171 1.11387171 -1.11387171 1.11387171 0 0 Z " fill="#C0C0C0" transform="translate(258,340)"/>
<path d="M0 0 C0.70398926 0.00821777 1.40797852 0.01643555 2.13330078 0.02490234 C13.77819248 0.27472355 22.43082613 3.55777094 31 11.6875 C41.19084782 22.57372332 40.125 32.90019916 40.125 48.25 C21.645 48.25 3.165 48.25 -15.875 48.25 C-11.51859872 58.45677755 -11.51859872 58.45677755 -2.875 64.25 C4.22100226 65.3206249 10.96087467 63.91454423 17.125 60.25 C18.89314706 58.21398309 18.89314706 58.21398309 20.125 56.25 C26.29722879 57.49028238 32.19182122 59.14603589 38.125 61.25 C37.34994299 67.9274142 32.91350326 71.87193987 28.125 76.25 C17.23498323 83.58929367 4.03498807 84.85447426 -8.74609375 82.78515625 C-19.3851898 79.98015277 -27.83067267 73.11278343 -33.3828125 63.69140625 C-39.09340905 52.71074488 -39.80688627 38.93848334 -37.12109375 26.859375 C-36.19836221 24.50007711 -35.19400301 22.40918985 -33.875 20.25 C-33.215 19.156875 -32.555 18.06375 -31.875 16.9375 C-30.885 15.6071875 -30.885 15.6071875 -29.875 14.25 C-29.28332031 13.445625 -28.69164062 12.64125 -28.08203125 11.8125 C-25.76164196 9.11838429 -23.56383945 7.45160333 -20.5625 5.5625 C-19.65886719 4.98113281 -18.75523437 4.39976562 -17.82421875 3.80078125 C-12.01420284 0.74571328 -6.49478309 -0.09226877 0 0 Z " fill="#040404" transform="translate(368.875,374.75)"/>
<path d="M0 0 C6.95836309 5.13299368 11.35180727 13.09397604 13.65625 21.3515625 C14.12795025 24.98579854 14.14473362 28.59270297 14.125 32.25 C14.12886719 32.9821875 14.13273437 33.714375 14.13671875 34.46875 C14.12671034 39.87328966 14.12671034 39.87328966 13 41 C11.28134591 41.0935919 9.55884256 41.11744611 7.83764648 41.11352539 C6.73658066 41.11344986 5.63551483 41.11337433 4.50108337 41.11329651 C3.3031868 41.10813522 2.10529022 41.10297394 0.87109375 41.09765625 C-0.34827377 41.0962413 -1.5676413 41.09482635 -2.82395935 41.09336853 C-6.7368307 41.08774967 -10.64964581 41.07519396 -14.5625 41.0625 C-17.20768147 41.05748743 -19.85286383 41.0529241 -22.49804688 41.04882812 C-28.99871726 41.03777411 -35.49935461 41.02101764 -42 41 C-41.55690664 42.27734032 -41.10457128 43.55147683 -40.6484375 44.82421875 C-40.39755371 45.53408936 -40.14666992 46.24395996 -39.88818359 46.9753418 C-37.77326634 51.79639973 -33.54484024 54.661903 -29 57 C-21.55292728 58.1261922 -16.13406033 57.26717241 -10 53 C-9.34 53 -8.68 53 -8 53 C-7.34 51.68 -6.68 50.36 -6 49 C0.17222879 50.24028238 6.06682122 51.89603589 12 54 C10.90206568 59.8556497 6.85322388 64.24431422 2.625 68.25 C-8.78060516 75.85373677 -20.53057175 77.57107435 -34.09765625 75.53515625 C-45.02689284 72.93734896 -53.1340343 66.47887976 -59.21484375 57.1328125 C-65.75611591 45.23510238 -66.63785526 31.82494033 -63.03125 18.91796875 C-59.64468581 9.33553145 -53.52053848 1.60510541 -44.5625 -3.34765625 C-30.07107702 -9.99750331 -13.47672407 -8.249255 0 0 Z " fill="#BFBFBF" transform="translate(173,382)"/>
<path d="M0 0 C5.49118722 4.2997032 8.27035889 10.24334635 10.1875 16.8125 C10.42800903 19.81185913 10.42800903 19.81185913 10.41455078 23.00146484 C10.41439972 24.20225677 10.41424866 25.40304871 10.41409302 26.64022827 C10.40377045 27.92168732 10.39344788 29.20314636 10.3828125 30.5234375 C10.3790779 31.86007474 10.37623304 33.19671474 10.37423706 34.53335571 C10.36663577 38.03505132 10.34701788 41.5365785 10.3248291 45.03820801 C10.30429474 48.61789675 10.29521918 52.19761296 10.28515625 55.77734375 C10.26376829 62.78913127 10.22967516 69.80080753 10.1875 76.8125 C7.04168577 76.84138514 3.89590531 76.85925923 0.75 76.875 C-0.14783203 76.88337891 -1.04566406 76.89175781 -1.97070312 76.90039062 C-3.25170898 76.90522461 -3.25170898 76.90522461 -4.55859375 76.91015625 C-5.34935303 76.91539307 -6.1401123 76.92062988 -6.95483398 76.92602539 C-8.8125 76.8125 -8.8125 76.8125 -9.8125 75.8125 C-9.95365161 73.14191149 -9.85497107 70.48817762 -9.8125 67.8125 C-10.369375 68.28300781 -10.92625 68.75351562 -11.5 69.23828125 C-20.76316139 76.79589435 -27.75301142 78.89267505 -39.8125 77.8125 C-46.45036444 76.52096982 -52.9887726 73.63182733 -57.09765625 68.07421875 C-60.4611073 62.44435624 -61.59502164 57.34096623 -60.8125 50.8125 C-58.70092168 42.56971236 -55.03089802 38.02873715 -47.8984375 33.6328125 C-36.58422246 27.45732461 -23.35060477 27.63809051 -10.8125 27.8125 C-10.93690562 21.14473205 -10.93690562 21.14473205 -13.625 15.25 C-17.87821857 12.4550278 -21.76641669 12.47039266 -26.8125 12.8125 C-32.5209467 14.78243818 -32.5209467 14.78243818 -36.8125 18.8125 C-38.00277984 21.41165538 -38.00277984 21.41165538 -38.8125 23.8125 C-40.97270233 23.10743396 -43.12891229 22.39286039 -45.28125 21.6640625 C-46.90011833 21.11944322 -48.52481868 20.59168121 -50.15625 20.0859375 C-52.3125 19.375 -52.3125 19.375 -55.8125 17.8125 C-56.69140625 15.9921875 -56.69140625 15.9921875 -56.8125 13.8125 C-52.7543945 4.98572579 -45.61924357 -0.55070711 -36.8125 -4.1875 C-25.30347744 -7.5138071 -10.15801124 -6.38380324 0 0 Z " fill="#050505" transform="translate(735.8125,380.1875)"/>
<path d="M0 0 C5.77232918 4.67283791 10.13201686 10.74571511 10.97521973 18.23608398 C11.08690151 21.98654478 11.07453044 25.717077 11.015625 29.46875 C11.00815155 30.84736302 11.00246384 32.22598676 10.99847412 33.60461426 C10.98330419 37.20843565 10.94409968 40.81159772 10.8996582 44.41516113 C10.85851681 48.10220423 10.84042314 51.78935533 10.8203125 55.4765625 C10.77759451 62.69304171 10.70731838 69.90884395 10.625 77.125 C4.355 77.125 -1.915 77.125 -8.375 77.125 C-9.035 74.155 -9.695 71.185 -10.375 68.125 C-10.83648437 68.59550781 -11.29796875 69.06601562 -11.7734375 69.55078125 C-17.78954616 75.29343042 -23.1870551 78.03664084 -31.5859375 78.1796875 C-46.85519817 77.36105581 -46.85519817 77.36105581 -52.41015625 72.25390625 C-58.43520578 65.51129435 -59.93280702 60.91948342 -59.6796875 51.8671875 C-59.2061586 46.05128126 -57.81163431 42.57310082 -53.71484375 38.45703125 C-41.72977141 28.48997931 -25.26537368 27.68633105 -10.375 28.125 C-10.46233576 26.51982903 -10.57052224 24.91578338 -10.6875 23.3125 C-10.74550781 22.41917969 -10.80351562 21.52585937 -10.86328125 20.60546875 C-11.44714769 17.77527648 -12.13340792 16.88311143 -14.375 15.125 C-18.51338241 12.87844955 -22.75701142 12.30157189 -27.375 13.125 C-31.98175938 15.04174096 -34.78521893 17.1481751 -37.375 21.4375 C-37.705 22.324375 -38.035 23.21125 -38.375 24.125 C-41.38146914 23.14372188 -44.37893493 22.13755903 -47.375 21.125 C-48.1484375 20.87363281 -48.921875 20.62226563 -49.71875 20.36328125 C-51.63709167 19.70645774 -53.51127578 18.92373895 -55.375 18.125 C-56.375 15.125 -56.375 15.125 -55.3125 12.375 C-50.37300231 4.08939098 -43.96680848 -1.63648989 -34.47558594 -4.43505859 C-23.12020007 -6.81330189 -10.10289343 -5.61271857 0 0 Z " fill="#040404" transform="translate(479.375,379.875)"/>
<path d="M0 0 C0.71671875 -0.00773437 1.4334375 -0.01546875 2.171875 -0.0234375 C11.71231147 0.01100451 19.7151082 2.48228653 26.6484375 9.21484375 C31.86527554 14.93207238 31.86527554 14.93207238 32.625 19.25 C30.23243751 19.95121643 27.83709511 20.63614901 25.4375 21.3125 C24.76396484 21.51166016 24.09042969 21.71082031 23.39648438 21.91601562 C19.45822765 23.0110431 16.5420104 23.55567013 12.625 22.25 C11.26338689 21.28886134 9.92644802 20.29115841 8.625 19.25 C3.36961396 17.49820465 -0.86388781 17.60238049 -5.875 19.75 C-6.7 20.245 -7.525 20.74 -8.375 21.25 C-8.375 23.23 -8.375 25.21 -8.375 27.25 C-3.61420201 29.2974413 1.02459036 31.24634157 6.125 32.25 C15.6504212 34.18196373 26.34618185 38.52222381 32.625 46.25 C35.61401524 52.56497402 35.8706901 59.47689733 33.6796875 66.11328125 C29.96879874 73.99016777 24.62169679 78.09375815 16.625 81.25 C11.09140479 82.86733472 6.06872223 83.63824335 0.3125 83.625 C-0.42589111 83.62338867 -1.16428223 83.62177734 -1.92504883 83.62011719 C-10.54188652 83.42844399 -18.75523201 80.94607943 -25.375 75.25 C-28.91669127 70.80617983 -31.52212943 66.93914838 -32.375 61.25 C-30.14917611 60.40665671 -27.92003974 59.57521449 -25.6875 58.75 C-25.06166016 58.51152344 -24.43582031 58.27304687 -23.79101562 58.02734375 C-20.24055437 56.72612758 -17.1604222 55.66130866 -13.375 56.25 C-12.75625 57.19875 -12.1375 58.1475 -11.5 59.125 C-9.63153805 62.46687658 -9.63153805 62.46687658 -6.25 63.625 C2.05498017 65.1097798 2.05498017 65.1097798 9.91015625 62.9609375 C12.03376101 61.2177311 12.03376101 61.2177311 11.875 57.5625 C11.7925 56.469375 11.71 55.37625 11.625 54.25 C6.05784148 51.68824839 0.47246961 49.91438096 -5.47119141 48.48486328 C-19.72134688 45.04820675 -19.72134688 45.04820675 -25.375 39.25 C-26.5815625 38.198125 -26.5815625 38.198125 -27.8125 37.125 C-31.51410532 32.68307361 -30.83234486 26.29982743 -30.76953125 20.80078125 C-30.16549135 15.36442212 -28.29035757 12.01833821 -24.375 8.25 C-16.72941395 2.52199622 -9.48575261 -0.10127138 0 0 Z " fill="#050505" transform="translate(630.375,374.75)"/>
<path d="M0 0 C6.93 0 13.86 0 21 0 C21 38.61 21 77.22 21 117 C14.07 117 7.14 117 0 117 C0 78.39 0 39.78 0 0 Z " fill="#030303" transform="translate(296,340)"/>
<path d="M0 0 C6.6 0 13.2 0 20 0 C20 26.73 20 53.46 20 81 C13.4 81 6.8 81 0 81 C0 54.27 0 27.54 0 0 Z " fill="#000000" transform="translate(766,376)"/>
<path d="M0 0 C4.1428754 3.01300029 8.60922469 6.91859543 10.4296875 11.8359375 C11.71540402 20.52236376 11.92171072 29.56665432 6.75 37 C3.67440625 40.26028998 -0.18116311 43.68248868 -4.66796875 44.37109375 C-10.40497594 44.50865246 -14.76058966 44.2047685 -19.45703125 40.71875 C-25.36858976 35.05189653 -27.63336343 29.6327477 -27.9375 21.4375 C-27.58037673 13.01109135 -25.06485553 8.21697775 -19.625 2 C-14.29685692 -2.48685733 -6.38687897 -1.96519353 0 0 Z " fill="#FAFAFA" transform="translate(552.25,395)"/>
<path d="M0 0 C4.62463924 3.363374 8.9187253 7.50617591 10.75 13 C11.95088659 30.69831226 11.95088659 30.69831226 6.75 37 C2.5126237 41.38466478 -1.83430472 44.27059424 -8 44.4375 C-13.51732391 44.31543531 -17.13296863 42.62146278 -21.25 39 C-26.50128533 32.64318092 -27.73940165 25.83742502 -27.5625 17.77734375 C-26.70208144 10.13037378 -22.99067758 4.88568304 -17.25 0 C-11.67733779 -1.85755407 -5.59495773 -1.72152545 0 0 Z " fill="#FEFEFE" transform="translate(246.25,395)"/>
<path d="M0 0 C4.95 -0.0825 9.9 -0.165 15 -0.25 C17.31837891 -0.30462402 17.31837891 -0.30462402 19.68359375 -0.36035156 C27.07066497 -0.41992472 32.73194375 -0.32868241 39 4 C42.85036694 8.38161497 43.65581009 12.73852403 43.375 18.50390625 C42.75239685 22.64810844 41.54436564 25.67546333 39 29 C31.51021905 34.24655448 23.80878502 33.45754644 15 33.25 C7.575 33.12625 7.575 33.12625 0 33 C0 22.11 0 11.22 0 0 Z " fill="#FEFEFE" transform="translate(31,362)"/>
<path d="M0 0 C3.37604652 2.04191311 6.22195185 4.44390371 8 8 C8.58118751 12.76383201 8.45088085 16.14488114 6.1875 20.4375 C3.69453285 23.35783294 2.12357737 24.86235377 -1.7421875 25.3359375 C-10.21153511 25.44154034 -10.21153511 25.44154034 -14.125 23.25 C-17.6334329 19.03988052 -18.50260266 15.66479333 -18.38671875 10.25390625 C-17.71615497 6.34567086 -15.87737766 4.68119282 -13 2 C-8.77685636 -0.50613657 -4.80343355 -0.95261371 0 0 Z " fill="#070707" transform="translate(781,340)"/>
<path d="M0 0 C0.52745079 5.9074489 -0.07368307 9.42019995 -3.53515625 14.30078125 C-6.56661479 17.81727316 -9.31977037 18.79910298 -13.875 19.34375 C-18.88519342 19.58934772 -21.98266645 19.66517963 -26.25 16.875 C-28.33592417 13.44812458 -28.81938858 11.9330652 -28 8 C-24.71416452 3.61888602 -21.30434142 1.82341762 -16 1 C-10.66122094 0.39746063 -5.37357815 0 0 0 Z " fill="#F6F6F6" transform="translate(469,422)"/>
<path d="M0 0 C2.91302371 1.36776382 5.47348765 3.01128185 8 5 C8.55042969 5.38542969 9.10085937 5.77085937 9.66796875 6.16796875 C11 8 11 8 12 16 C1.11 16 -9.78 16 -21 16 C-20 10 -20 10 -19 8 C-18.34 8 -17.68 8 -17 8 C-16.7215625 7.13375 -16.7215625 7.13375 -16.4375 6.25 C-12.8638234 0.65641923 -6.35349523 -1.42530882 0 0 Z " fill="#FCFCFC" transform="translate(152,392)"/>
<path d="M0 0 C0.42064893 6.09940955 0.08964656 9.13663653 -4 14 C-9.07342852 18.57845988 -12.89894228 19.3138491 -19.55078125 19.20703125 C-22.86154068 18.92717439 -24.63260771 18.36739229 -27 16 C-27.92941425 12.59214776 -28.32661064 10.17579831 -27.375 6.75 C-24.52283892 3.1199768 -21.13684282 1.86196826 -16.6796875 1.26953125 C-15.07935659 1.10475253 -13.47767108 0.95270156 -11.875 0.8125 C-10.65876953 0.6897168 -10.65876953 0.6897168 -9.41796875 0.56445312 C-6.25789141 0.25366866 -3.17777935 0 0 0 Z " fill="#FAFAFA" transform="translate(725,422)"/>
<path d="M0 0 C3.60405225 1.23080594 6.15414277 3.2087142 8.9375 5.8125 C10 8 10 8 10 15 C-0.56 15 -11.12 15 -22 15 C-20.83333333 6.83333333 -20.83333333 6.83333333 -17 3 C-11.53193793 -0.8802571 -6.50292355 -0.78379608 0 0 Z " fill="#F8F8F8" transform="translate(376,393)"/>
</svg>
