<?xml version="1.0" encoding="UTF-8"?>
<svg version="1.1" xmlns="http://www.w3.org/2000/svg" width="800" height="800">
<path d="M0 0 C67.13664449 0 67.13664449 0 79.265625 11.9921875 C87.00665674 20.95365217 87.78006666 30.5547596 87 42 C85.83224339 50.22054404 81.80746706 56.17114264 76 62 C73.70541307 63.70091557 71.6127848 64.76755434 69 66 C67.33020674 66.99477045 65.66220581 67.99260254 64 69 C65.65974338 73.76476892 68.21946372 77.80769638 70.875 82.0625 C71.85869886 83.65716613 72.84174619 85.25223431 73.82421875 86.84765625 C74.33903809 87.68184082 74.85385742 88.51602539 75.38427734 89.37548828 C78.17254477 93.90463225 80.93538972 98.44881433 83.6875 103 C84.21649902 103.86633057 84.74549805 104.73266113 85.29052734 105.62524414 C85.77602051 106.42953857 86.26151367 107.23383301 86.76171875 108.0625 C87.19444092 108.77535156 87.62716309 109.48820312 88.07299805 110.22265625 C89 112 89 112 89 114 C80.75 114 72.5 114 64 114 C62.35 110.7 60.7 107.4 59 104 C57.88727193 101.99302056 56.75406874 99.99708287 55.58984375 98.01953125 C54.99236328 97.00052734 54.39488281 95.98152344 53.77929688 94.93164062 C53.17150391 93.90232422 52.56371094 92.87300781 51.9375 91.8125 C50.14481816 88.76172954 48.3527768 85.71058738 46.56201172 82.65869141 C45.60417346 81.02836027 44.64303002 79.39995862 43.67626953 77.77490234 C41 73.22182963 41 73.22182963 41 71 C34.73 71 28.46 71 22 71 C22 85.19 22 99.38 22 114 C14.74 114 7.48 114 0 114 C0 76.38 0 38.76 0 0 Z " fill="#06FF73" transform="translate(9,343)"/>
<path d="M0 0 C6.93 0 13.86 0 21 0 C21 38.61 21 77.22 21 117 C14.73 117 8.46 117 2 117 C1.505 112.545 1.505 112.545 1 108 C0.39414062 108.47050781 -0.21171875 108.94101562 -0.8359375 109.42578125 C-10.41816665 116.5461146 -19.02917158 119.16630534 -31 118 C-40.40828054 116.22205722 -47.4299073 110.58151506 -53 103 C-60.60383917 91.316052 -61.73070484 76.99840311 -59.38671875 63.45703125 C-56.19156692 51.67578858 -50.02157714 43.53837807 -39.61328125 37.2421875 C-31.76200722 33.51019177 -20.25675695 33.66776555 -12 36.1875 C-7.65140825 37.73668581 -5.00840019 40.13685701 -1 43 C-0.67 28.81 -0.34 14.62 0 0 Z " fill="#FFFFFF" transform="translate(563,340)"/>
<path d="M0 0 C6.93 0 13.86 0 21 0 C21 38.61 21 77.22 21 117 C14.73 117 8.46 117 2 117 C1.505 112.545 1.505 112.545 1 108 C0.33613281 108.48210937 -0.32773437 108.96421875 -1.01171875 109.4609375 C-1.89472656 110.09257812 -2.77773437 110.72421875 -3.6875 111.375 C-4.55761719 112.00148438 -5.42773438 112.62796875 -6.32421875 113.2734375 C-14.11332215 118.29939911 -22.94689192 118.78971486 -32 118 C-41.72577651 115.77736985 -48.9993704 109.48557047 -54.375 101.25 C-61.37232587 88.47988028 -61.90046295 73.49387378 -57.91015625 59.6484375 C-54.33622898 49.2487693 -48.94017083 42.76243901 -39.46484375 37.1640625 C-31.94635976 33.61333631 -21.71282601 34.02317082 -13.6875 35.625 C-10 37 -10 37 -1 43 C-0.67 28.81 -0.34 14.62 0 0 Z " fill="#05FF72" transform="translate(257,340)"/>
<path d="M0 0 C8.34388063 5.92146367 13.75127735 13.36162305 16.44140625 23.43359375 C16.8547661 26.49151716 16.9173071 29.45347071 16.91015625 32.5390625 C16.91402344 34.21162109 16.91402344 34.21162109 16.91796875 35.91796875 C16.78515625 38.9765625 16.78515625 38.9765625 15.78515625 42.9765625 C-2.36484375 42.9765625 -20.51484375 42.9765625 -39.21484375 42.9765625 C-36.06043114 51.83058683 -36.06043114 51.83058683 -29.58984375 57.7890625 C-21.93532498 60.4823191 -15.46196454 59.15512425 -8.21484375 55.9765625 C-7.22484375 55.6465625 -6.23484375 55.3165625 -5.21484375 54.9765625 C-4.00602279 52.97639784 -4.00602279 52.97639784 -3.21484375 50.9765625 C9.45486012 54.05173334 9.45486012 54.05173334 14.78515625 55.9765625 C13.65310177 62.15394621 9.31195513 66.98601126 4.484375 70.7890625 C-6.56113262 77.83563834 -18.86478442 79.82361663 -31.71484375 77.28515625 C-42.71283771 74.24288709 -50.68241438 68.42179967 -56.625 58.66015625 C-62.48148213 47.74968371 -64.29424848 34.86720339 -61.08984375 22.7890625 C-57.09585652 11.38031195 -50.02140843 2.98037835 -39.52734375 -3.0234375 C-27.03531201 -8.16100548 -11.4584184 -6.85593091 0 0 Z " fill="#05FF72" transform="translate(170.21484375,380.0234375)"/>
<path d="M0 0 C12.90057231 -0.40518515 22.50596937 2.53913379 32.10546875 11.31640625 C42.69636505 22.16561709 41.54296875 33.11710791 41.54296875 48.19140625 C23.06296875 48.19140625 4.58296875 48.19140625 -14.45703125 48.19140625 C-12.29715146 54.67104561 -10.34662553 59.05861047 -4.83203125 63.12890625 C2.22697849 65.35118709 8.40860827 65.08680903 15.10546875 61.87890625 C18.3344977 60.15847963 19.46080491 59.31465201 21.54296875 56.19140625 C27.71519754 57.43168863 33.60978997 59.08744214 39.54296875 61.19140625 C38.76791174 67.86882045 34.33147201 71.81334612 29.54296875 76.19140625 C18.65295198 83.53069992 5.45295682 84.79588051 -7.328125 82.7265625 C-18.30688219 79.83200717 -26.33859504 72.84286295 -32.22265625 63.33984375 C-36.05948755 55.82754321 -37.01529743 49.29367011 -37.08203125 40.94140625 C-37.09290771 40.03116699 -37.10378418 39.12092773 -37.11499023 38.18310547 C-36.90273689 28.04088742 -32.94086602 18.95710261 -26.45703125 11.19140625 C-23.95154919 8.90024241 -21.31393904 7.01804515 -18.45703125 5.19140625 C-17.86792969 4.78921875 -17.27882813 4.38703125 -16.671875 3.97265625 C-11.21393725 0.49151144 -6.22488254 0.34465451 0 0 Z " fill="#FFFFFF" transform="translate(367.45703125,374.80859375)"/>
<path d="M0 0 C4.96169603 3.90957735 8.21705407 10.02616221 10.1875 15.9375 C10.27638831 17.91592761 10.30510873 19.89726634 10.30102539 21.87768555 C10.30091209 23.70924446 10.30091209 23.70924446 10.30079651 25.57780457 C10.29563522 26.89662125 10.29047394 28.21543793 10.28515625 29.57421875 C10.2832908 30.93756559 10.2818675 32.30091311 10.28086853 33.66426086 C10.27705332 37.24978491 10.26723155 40.83526835 10.25616455 44.42077637 C10.24592901 48.0806422 10.24136632 51.7405146 10.23632812 55.40039062 C10.22560838 62.57944558 10.20854393 69.7584671 10.1875 76.9375 C7.04168577 76.96638514 3.89590531 76.98425923 0.75 77 C-0.14783203 77.00837891 -1.04566406 77.01675781 -1.97070312 77.02539062 C-3.25170898 77.03022461 -3.25170898 77.03022461 -4.55859375 77.03515625 C-5.34935303 77.04039307 -6.1401123 77.04562988 -6.95483398 77.05102539 C-8.8125 76.9375 -8.8125 76.9375 -9.8125 75.9375 C-9.95365161 73.26691149 -9.85497107 70.61317762 -9.8125 67.9375 C-10.51375 68.49179687 -11.215 69.04609375 -11.9375 69.6171875 C-22.09995568 77.3771061 -22.09995568 77.3771061 -28.8125 77.9375 C-30.20275391 78.05738281 -30.20275391 78.05738281 -31.62109375 78.1796875 C-40.16189534 78.54960757 -47.15102818 77.05364623 -53.75 71.4375 C-54.7709375 70.2 -54.7709375 70.2 -55.8125 68.9375 C-56.369375 68.2775 -56.92625 67.6175 -57.5 66.9375 C-61.08552094 61.47384904 -61.56620875 56.34879467 -60.8125 49.9375 C-58.80396089 42.43253949 -54.71979048 37.85565814 -48.13989258 33.94287109 C-42.87786995 31.06956016 -37.91094263 29.95434026 -32 29.1875 C-30.68757324 29.00320435 -30.68757324 29.00320435 -29.34863281 28.81518555 C-23.15636075 27.99150086 -17.06083698 27.5505617 -10.8125 27.9375 C-10.80596016 21.04937286 -10.80596016 21.04937286 -14.1875 15.375 C-18.57284882 12.97349946 -21.84600776 12.60640052 -26.8125 12.9375 C-31.4261433 14.50144688 -34.7199252 16.13125409 -37.8125 19.9375 C-38.1425 20.9275 -38.4725 21.9175 -38.8125 22.9375 C-44.74881729 22.4212985 -50.66466582 21.04395166 -55.8125 17.9375 C-56.7578125 16.07421875 -56.7578125 16.07421875 -56.8125 13.9375 C-53.51028256 6.6140339 -47.49682774 0.43877331 -40.1875 -2.875 C-27.95808715 -7.17794156 -11.254758 -6.88468928 0 0 Z " fill="#FFFFFF" transform="translate(735.8125,380.0625)"/>
<path d="M0 0 C0.75990234 -0.00773437 1.51980469 -0.01546875 2.30273438 -0.0234375 C11.47567263 0.00789619 19.04706526 2.11473051 26.0625 8.25 C30.79581294 14.0527644 33.19133379 18.73494237 33.17602539 26.28198242 C33.17591209 28.14357246 33.17591209 28.14357246 33.17579651 30.04277039 C33.17068991 31.39700358 33.16547391 32.75123637 33.16015625 34.10546875 C33.15829083 35.49123585 33.15686751 36.87700361 33.15586853 38.26277161 C33.1520531 41.9074791 33.14223113 45.55214665 33.13116455 49.19683838 C33.1209295 52.91702738 33.11636642 56.63722285 33.11132812 60.35742188 C33.10060798 67.65496822 33.08301907 74.95247342 33.0625 82.25 C26.7925 82.25 20.5225 82.25 14.0625 82.25 C13.5675 77.795 13.5675 77.795 13.0625 73.25 C12.34964844 73.80429687 11.63679688 74.35859375 10.90234375 74.9296875 C2.16896658 81.53555287 -4.07394189 83.76060484 -14.9375 83.25 C-16.113125 83.20875 -17.28875 83.1675 -18.5 83.125 C-25.18243782 81.42401583 -31.28956241 77.14282225 -34.9375 71.25 C-38.18974485 65.19456502 -38.40677909 59.9234432 -36.9375 53.25 C-34.13923785 46.18771933 -30.22931763 41.86604763 -23.55859375 38.3828125 C-12.23536062 33.48901577 -0.08027234 33.04223393 12.0625 33.25 C11.94831173 26.5595126 11.94831173 26.5595126 9.1875 20.6875 C5.0647887 17.89860706 0.88807381 17.7621203 -3.9375 18.25 C-9.1252861 19.89279893 -11.9630688 21.673952 -14.9375 26.25 C-15.2675 27.24 -15.5975 28.23 -15.9375 29.25 C-20.4434945 28.02962649 -24.78547061 26.61468335 -29.140625 24.93359375 C-30.7244644 24.33104615 -32.3298776 23.78587413 -33.9375 23.25 C-33.367314 19.25869802 -32.18917486 16.58581461 -29.9375 13.25 C-29.421875 12.445625 -28.90625 11.64125 -28.375 10.8125 C-20.6355573 2.6761628 -10.92846683 -0.11066802 0 0 Z " fill="#FFFFFF" transform="translate(456.9375,374.75)"/>
<path d="M0 0 C0.80308594 -0.01160156 1.60617187 -0.02320313 2.43359375 -0.03515625 C11.91899776 0.01096403 19.28451207 3.4469317 26.25 9.9375 C29.41560305 13.3669033 30.5 14.5961082 30.5 19.375 C28.27518771 20.07646314 26.04492632 20.76065954 23.8125 21.4375 C21.95044922 22.01177734 21.95044922 22.01177734 20.05078125 22.59765625 C16.59909503 23.35330593 14.80152203 23.49297571 11.5 22.375 C10.5925 21.694375 9.685 21.01375 8.75 20.3125 C4.50182266 17.77993274 1.32860035 17.77250085 -3.5 18.375 C-6.91471924 19.25960028 -6.91471924 19.25960028 -9.5 20.375 C-9.70970559 24.51593698 -9.70970559 24.51593698 -8.5 28.375 C-3.15475115 30.59640212 2.45215071 32.23636358 8.125 33.375 C17.52365378 35.37687933 25.11535608 38.98587546 31.5 46.375 C34.44240944 52.06240482 34.22367524 58.13514717 33.5 64.375 C31.53844382 69.99218361 28.53511856 74.13813807 23.5 77.375 C22.4275 78.07625 21.355 78.7775 20.25 79.5 C10.62680782 84.70061875 -2.2901312 85.01475914 -12.83203125 82.6171875 C-15.49985164 81.69020203 -17.97662899 80.63890288 -20.5 79.375 C-21.5725 78.859375 -22.645 78.34375 -23.75 77.8125 C-27.96310244 74.0781592 -31.14459643 69.4921707 -33.5 64.375 C-33.19140625 62.03125 -33.19140625 62.03125 -32.5 60.375 C-30.27518771 59.67353686 -28.04492632 58.98934046 -25.8125 58.3125 C-24.57113281 57.92964844 -23.32976563 57.54679687 -22.05078125 57.15234375 C-18.62700256 56.40280364 -16.76627174 56.19700036 -13.5 57.375 C-11.875 59.8125 -11.875 59.8125 -10.5 62.375 C-6.88536441 64.78475706 -4.1778074 64.70739432 0 64.6875 C0.67675781 64.70361328 1.35351562 64.71972656 2.05078125 64.73632812 C4.93353509 64.73917108 6.99159987 64.7153084 9.42578125 63.0859375 C11.13368948 60.36570549 11.20323496 57.52070938 11.5 54.375 C8.20546948 52.99492837 4.97992012 51.90704467 1.515625 51.04296875 C0.11183594 50.68041992 0.11183594 50.68041992 -1.3203125 50.31054688 C-3.25597338 49.81630813 -5.19346789 49.32918985 -7.1328125 48.84960938 C-16.79154064 46.32907826 -24.73367914 42.79969251 -30.5 34.375 C-33.17542526 29.63220068 -33.25168894 24.50507971 -32 19.29296875 C-29.7017188 12.46341722 -25.86266795 7.60676953 -19.36401367 4.24389648 C-12.63498032 1.10720628 -7.38144032 -0.10663397 0 0 Z " fill="#FFFFFF" transform="translate(631.5,374.625)"/>
<path d="M0 0 C6.93 0 13.86 0 21 0 C21 38.61 21 77.22 21 117 C14.07 117 7.14 117 0 117 C0 78.39 0 39.78 0 0 Z " fill="#FFFFFF" transform="translate(296,340)"/>
<path d="M0 0 C6.6 0 13.2 0 20 0 C20 26.73 20 53.46 20 81 C13.4 81 6.8 81 0 81 C0 54.27 0 27.54 0 0 Z " fill="#FFFFFF" transform="translate(766,376)"/>
<path d="M0 0 C5.66311179 1.92332099 10.37431755 5.87581435 13.1484375 11.20703125 C15.22971293 18.03323278 15.40166232 28.07331074 12.4375 34.625 C9.49507099 39.36441245 5.29786202 43.23404599 0 45 C-5.96889281 45.53422104 -10.93593698 45.53306722 -16 42 C-21.93098553 36.20694437 -24.09213453 29.73121025 -24.4375 21.5 C-24.2242593 15.14720422 -22.67472665 9.8296106 -18.24609375 5.14453125 C-12.27576487 -0.10287681 -7.91153255 -0.60598973 0 0 Z " fill="#FBFEFC" transform="translate(243,394)"/>
<path d="M0 0 C4.48206479 2.54951459 7.61052974 6.31704772 9.296875 11.203125 C10.61502813 18.74296088 11.14140732 28.06601946 7.03125 34.7890625 C3.84822604 38.69381864 0.49713677 41.83428774 -4.3125 43.4375 C-9.49847505 43.93411614 -13.91064546 44.08650673 -18.6875 41.875 C-23.5063382 37.40036453 -27.09481576 32.92882032 -27.515625 26.1796875 C-27.7210415 9.23282635 -27.7210415 9.23282635 -22.66015625 3.59765625 C-16.18202578 -2.22307409 -8.11960877 -3.61214534 0 0 Z " fill="#FBFCFB" transform="translate(553.3125,395.5625)"/>
<path d="M0 0 C5.135625 -0.0825 10.27125 -0.165 15.5625 -0.25 C17.16939697 -0.28641602 18.77629395 -0.32283203 20.43188477 -0.36035156 C21.71377686 -0.3703418 22.99566895 -0.38033203 24.31640625 -0.390625 C25.62037354 -0.41157227 26.92434082 -0.43251953 28.26782227 -0.45410156 C33.8836685 0.22918973 37.50105384 2.42418481 41.4375 6.5625 C44.12609795 12.4774155 43.95761013 18.36657214 41.75 24.4375 C38.71035624 28.88840693 36.16518532 31.34724796 31 33 C27.58666992 33.22705078 27.58666992 33.22705078 23.73046875 33.1953125 C22.48418701 33.19031738 21.23790527 33.18532227 19.95385742 33.18017578 C17.5945105 33.15286377 17.5945105 33.15286377 15.1875 33.125 C7.6696875 33.063125 7.6696875 33.063125 0 33 C0 22.11 0 11.22 0 0 Z " fill="#FCFEFD" transform="translate(31,362)"/>
<path d="M0 0 C3.43403788 2.00011167 6.21175747 4.42351494 8 8 C8.57322775 12.69858808 8.41740893 16.14972255 6.3125 20.4375 C3.38801196 23.67814891 1.41761817 24.77396253 -2.921875 25.1796875 C-6.99754811 25.31758621 -10.44423062 25.17297018 -14 23 C-17.63121349 18.97622289 -18.74637115 15.5512645 -18.53125 10.25390625 C-17.59187532 6.26847103 -15.03019408 3.63768189 -12 1 C-8.24289828 -0.87855086 -4.08021262 -0.66379578 0 0 Z " fill="#FFFFFF" transform="translate(781,340)"/>
<path d="M0 0 C0.42727759 6.08870569 0.03733937 10.23955507 -4 15 C-9.17058863 19.20110326 -13.63860936 19.64435495 -20.23828125 19.37109375 C-23 19 -23 19 -26.3125 17.5625 C-28.51473073 14.21837185 -28.33399357 12.11419325 -27.98046875 8.21875 C-26.45812358 4.77376172 -24.28282309 3.73774295 -21 2 C-17.34375 1.171875 -17.34375 1.171875 -13.5 0.75 C-12.2315625 0.60046875 -10.963125 0.4509375 -9.65625 0.296875 C-6.41423663 0.0336346 -3.25016742 -0.06018829 0 0 Z " fill="#F6F6F6" transform="translate(469,422)"/>
<path d="M0 0 C0.41120021 6.85333692 -0.95577043 10.64127358 -5.4375 15.8125 C-10.06825135 19.76558042 -15.29532792 19.40138704 -21.203125 19.34375 C-24 19 -24 19 -26.75 16.875 C-28.2258729 13.48049233 -28.68516699 11.65422397 -28 8 C-25.71768778 4.28067638 -24.27310542 3.30701363 -20.01953125 2.28125 C-16.68433731 1.75928639 -13.35666954 1.35550934 -10 1 C-8.6239468 0.79874052 -7.24862768 0.59219754 -5.875 0.375 C-3 0 -3 0 0 0 Z " fill="#F8F9F8" transform="translate(725,422)"/>
<path d="M0 0 C4.06070394 2.38067244 7.44449717 4.92813188 9.85546875 9.046875 C9.85546875 11.026875 9.85546875 13.006875 9.85546875 15.046875 C-0.70453125 15.046875 -11.26453125 15.046875 -22.14453125 15.046875 C-20.96112514 6.76303221 -20.96112514 6.76303221 -17.14453125 3.046875 C-11.68429977 -0.83828971 -6.46186454 -2.87193979 0 0 Z " fill="#F8F8F8" transform="translate(376.14453125,392.953125)"/>
<path d="M0 0 C3.5625 1.8125 3.5625 1.8125 6 4 C6.8971875 4.61875 6.8971875 4.61875 7.8125 5.25 C9 7 9 7 10 15 C-0.89 15 -11.78 15 -23 15 C-21.79752312 8.9876156 -19.9192884 5.82332398 -15.5 1.625 C-10.34553976 -0.76814225 -5.58951145 -0.77440419 0 0 Z " fill="#F9FEFB" transform="translate(154,393)"/>
<path d="M0 0 C0.66 0.33 1.32 0.66 2 1 C-0.64 3.64 -3.28 6.28 -6 9 C-6 6 -6 6 -3.5625 3.375 C-2.716875 2.59125 -1.87125 1.8075 -1 1 C-0.67 0.67 -0.34 0.34 0 0 Z " fill="#DADDDB" transform="translate(362,394)"/>
<path d="M0 0 C0.66 0.33 1.32 0.66 2 1 C-0.31 3.31 -2.62 5.62 -5 8 C-5 5 -5 5 -2.5 2.3125 C-1.675 1.549375 -0.85 0.78625 0 0 Z " fill="#CED0CF" transform="translate(703,394)"/>
</svg>
